<svg width="32" height="32" viewBox="0 0 32 32" fill="none" xmlns="http://www.w3.org/2000/svg">
<path d="M19.6436 22.1232C22.5449 22.1232 24.8969 19.7713 24.8969 16.87C24.8969 13.9687 22.5449 11.6167 19.6436 11.6167C16.7423 11.6167 14.3903 13.9687 14.3903 16.87C14.3903 19.7713 16.7423 22.1232 19.6436 22.1232Z" fill="#D68F30"/>
<path d="M14.7475 18.2346V18.7712C14.8024 18.9132 14.8638 19.0533 14.9307 19.1889V18.2346H14.7475ZM15.3465 19.2447V19.8895C15.4197 19.993 15.4957 20.0946 15.5754 20.1926V19.2447H15.3465ZM16.1396 20.0873V20.7824C16.2284 20.8621 16.32 20.9381 16.4143 21.0114V20.0873H16.1396ZM17.1159 20.7275V21.4748C17.2056 21.5243 17.2972 21.571 17.3906 21.6159V20.7275H17.1159ZM18.2231 21.135V21.9263C18.3138 21.952 18.4054 21.9749 18.4979 21.9959V21.135H18.2231ZM19.519 21.2761V22.1196C19.5602 22.1205 19.6015 22.1223 19.6436 22.1223C19.694 22.1223 19.7443 22.1196 19.7938 22.1186V21.2761H19.519ZM20.8149 21.1286V21.9895C20.9074 21.9685 20.999 21.9446 21.0897 21.919V21.1286H20.8149ZM21.9194 20.7156V21.6049C22.0129 21.56 22.1044 21.5114 22.1942 21.4611V20.7156H21.9194ZM22.893 20.0699V20.9949C22.9872 20.9212 23.0789 20.8442 23.1677 20.7641V20.0699H22.893ZM23.9563 19.2246H23.7273V20.1725C23.807 20.0736 23.8839 19.9719 23.9563 19.8675V19.2246ZM24.5516 18.2108H24.3684V19.1669C24.4353 19.0286 24.4966 18.8866 24.5516 18.7429V18.2108Z" fill="#BC6F00"/>
<path d="M19.6436 21.6506C22.5449 21.6506 24.8969 19.2987 24.8969 16.3974C24.8969 13.4961 22.5449 11.1441 19.6436 11.1441C16.7423 11.1441 14.3903 13.4961 14.3903 16.3974C14.3903 19.2987 16.7423 21.6506 19.6436 21.6506Z" fill="#FFF176"/>
<path d="M19.6436 21.1826C22.2864 21.1826 24.4288 19.0402 24.4288 16.3974C24.4288 13.7545 22.2864 11.6121 19.6436 11.6121C17.0007 11.6121 14.8583 13.7545 14.8583 16.3974C14.8583 19.0402 17.0007 21.1826 19.6436 21.1826Z" fill="#F2BC1A"/>
<path d="M14.8492 16.5805C14.8153 15.9504 14.9243 15.3112 15.1441 14.7122C15.373 14.1151 15.7238 13.5628 16.1662 13.0939C17.0545 12.1543 18.344 11.6093 19.6436 11.6029C20.9432 11.6102 22.2336 12.1543 23.1201 13.0948C23.5634 13.5628 23.9133 14.116 24.1422 14.7122C24.3629 15.3121 24.4719 15.9504 24.4371 16.5805H24.4188C24.4169 15.9519 24.2925 15.3298 24.0525 14.7488C23.812 14.1685 23.4608 13.6406 23.0185 13.1946C22.5759 12.7491 22.05 12.395 21.4707 12.1524C20.8916 11.9106 20.2703 11.7861 19.6427 11.7861C19.0151 11.7861 18.3938 11.9106 17.8147 12.1524C17.2354 12.395 16.7095 12.7491 16.2669 13.1946C15.8244 13.6405 15.4732 14.1684 15.2329 14.7488C14.9929 15.3298 14.8685 15.9519 14.8666 16.5805H14.8492Z" fill="#E08F00"/>
<path d="M19.6436 11.145C16.7422 11.145 14.3903 13.4969 14.3903 16.3983C14.3903 19.2996 16.7422 21.6515 19.6436 21.6515C22.545 21.6515 24.8969 19.2996 24.8969 16.3983C24.8969 13.4969 22.545 11.145 19.6436 11.145ZM19.6436 21.1835C17.0005 21.1835 14.8583 19.0414 14.8583 16.3983C14.8583 13.7542 17.0005 11.6121 19.6436 11.6121C22.2867 11.6121 24.4288 13.7542 24.4288 16.3974C24.4288 19.0405 22.2867 21.1835 19.6436 21.1835Z" fill="#FFF176"/>
<path d="M17.2615 12.7276L17.3778 13.0875L17.7569 12.9428V13.0875L17.4501 13.3101L17.5674 13.5244V13.67L17.2615 13.4474L16.9547 13.67V13.5244L17.0719 13.3101L16.766 13.0875V12.9428L17.1442 13.0875L17.2615 12.7276ZM15.7979 14.7937L15.9152 15.1537L16.2934 15.009V15.1537L15.9875 15.3762L16.1048 15.5914V15.7361L15.7979 15.5136L15.4921 15.7361V15.5914L15.6093 15.3762L15.3025 15.1537V15.009L15.6816 15.1537L15.7979 14.7937ZM15.7549 17.3407L15.8721 17.7006L16.2504 17.5559V17.7006L15.9445 17.9232L16.0617 18.1384V18.2831L15.7549 18.0605L15.449 18.2831V18.1384L15.5662 17.9232L15.2594 17.7006V17.5559L15.6386 17.7006L15.7549 17.3407ZM17.3173 19.3629L17.4346 19.7228L17.8128 19.5781V19.7228L17.5069 19.9453L17.6241 20.1596V20.3053L17.3173 20.0827L17.0114 20.3053V20.1596L17.1287 19.9453L16.8219 19.7228V19.5781L17.201 19.7228L17.3173 19.3629ZM22.0257 12.7276L21.9094 13.0875L21.5302 12.9428V13.0875L21.837 13.3101L21.7198 13.5244V13.67L22.0257 13.4474L22.3325 13.67V13.5244L22.2153 13.3101L22.5211 13.0875V12.9428L22.1429 13.0875L22.0257 12.7276ZM23.4892 14.7937L23.372 15.1537L22.9937 15.009V15.1537L23.2996 15.3762L23.1824 15.5914V15.7361L23.4892 15.5136L23.7951 15.7361V15.5914L23.6779 15.3762L23.9847 15.1537V15.009L23.6055 15.1537L23.4892 14.7937ZM23.5322 17.3407L23.415 17.7006L23.0368 17.5559V17.7006L23.3427 17.9232L23.2254 18.1384V18.2831L23.5322 18.0605L23.8381 18.2831V18.1384L23.7209 17.9232L24.0277 17.7006V17.5559L23.6485 17.7006L23.5322 17.3407ZM21.9698 19.3629L21.8526 19.7228L21.4743 19.5781V19.7228L21.7802 19.9453L21.663 20.1596V20.3053L21.9698 20.0827L22.2757 20.3053V20.1596L22.1585 19.9453L22.4653 19.7228V19.5781L22.0861 19.7228L21.9698 19.3629Z" fill="#D38200"/>
<path d="M21.9698 19.2172L22.0861 19.5771H22.4653L22.1585 19.7997L22.2757 20.1596L21.9698 19.9371L21.663 20.1596L21.7803 19.7997L21.4744 19.5771H21.8526L21.9698 19.2172ZM23.5323 17.196L23.6486 17.5559L24.0277 17.5559L23.7209 17.7784L23.8381 18.1384L23.5323 17.9158L23.2254 18.1384L23.3427 17.7784L23.0368 17.5559L23.415 17.5559L23.5323 17.196ZM23.4892 14.649L23.6055 15.0089L23.9847 15.009L23.6779 15.2315L23.7951 15.5914L23.4892 15.3689L23.1824 15.5914L23.2996 15.2315L22.9937 15.009L23.372 15.0089L23.4892 14.649ZM22.0257 12.5819L22.1429 12.9419H22.5212L22.2153 13.1644L22.3325 13.5244L22.0257 13.3018L21.7198 13.5244L21.837 13.1644L21.5302 12.9419H21.9094L22.0257 12.5819Z" fill="#FFF176"/>
<path d="M19.6481 20.1596L19.7653 20.5196L20.1436 20.3749V20.5196L19.8377 20.7421L19.9549 20.9573V21.102L19.6481 20.8795L19.3422 21.102V20.9573L19.4595 20.7421L19.1527 20.5196V20.3749L19.5318 20.5196L19.6481 20.1596Z" fill="#D38200"/>
<path d="M19.6481 19.9673L19.7653 20.3272H20.1436L19.8377 20.5498L19.9549 20.9097L19.6481 20.6872L19.3422 20.9097L19.4595 20.5498L19.1527 20.3272H19.5318L19.6481 19.9673Z" fill="#FFF176"/>
<path d="M19.6481 11.9528L19.7653 12.3127L20.1436 12.168V12.3127L19.8377 12.5353L19.9549 12.7505V12.8952L19.6481 12.6726L19.3422 12.8952V12.7505L19.4595 12.5353L19.1527 12.3127V12.168L19.5318 12.3127L19.6481 11.9528Z" fill="#D38200"/>
<path d="M19.6481 11.8081L19.7654 12.168L20.1436 12.168L19.8377 12.3906L19.9549 12.7505L19.6481 12.5279L19.3422 12.7505L19.4595 12.3906L19.1527 12.168L19.5318 12.168L19.6481 11.8081ZM17.3173 19.2172L17.201 19.5772H16.8219L17.1287 19.7997L17.0114 20.1596L17.3173 19.9371L17.6241 20.1596L17.5069 19.7997L17.8128 19.5772H17.4346L17.3173 19.2172ZM15.7549 17.196L15.6386 17.5559L15.2594 17.5559L15.5662 17.7785L15.449 18.1384L15.7549 17.9158L16.0617 18.1384L15.9445 17.7785L16.2504 17.5559L15.8721 17.5559L15.7549 17.196ZM15.7979 14.649L15.6816 15.009L15.3025 15.009L15.6093 15.2315L15.4921 15.5914L15.7979 15.3689L16.1048 15.5914L15.9875 15.2315L16.2934 15.009L15.9152 15.009L15.7979 14.649ZM17.2615 12.582L17.1442 12.9419H16.766L17.0719 13.1645L16.9547 13.5244L17.2615 13.3018L17.5674 13.5244L17.4501 13.1645L17.7569 12.9419H17.3778L17.2615 12.582Z" fill="#FFF176"/>
<path d="M21.827 14.8322L19.6436 13.593L17.4602 14.8322H21.827Z" fill="#F2BC1A"/>
<path d="M18.4412 18.1366H17.8401V18.7377H18.7418V19.3389H19.343V18.7377H19.9442V19.3389H20.5453V18.7224C21.1369 18.6476 21.5974 18.1468 21.5974 17.5354C21.5974 17.1386 21.402 16.7888 21.1044 16.5696C21.3239 16.346 21.447 16.0452 21.4471 15.7319C21.4471 15.1734 21.0626 14.7066 20.5453 14.5722V13.9284H19.9442V14.5296H19.343V13.9284H18.7418V14.5296H17.8401V15.1307H18.4412V18.1366ZM20.395 18.1366H19.0424V16.9342H20.395C20.7266 16.9342 20.9962 17.2039 20.9962 17.5354C20.9962 17.8669 20.7266 18.1366 20.395 18.1366ZM19.0424 15.1307H20.2447C20.5763 15.1307 20.8459 15.4004 20.8459 15.7319C20.8459 16.0634 20.5763 16.3331 20.2447 16.3331H19.0424V15.1307Z" fill="#D68F30"/>
<path d="M18.4412 17.9863H17.8401V18.5874H18.7418V19.1886H19.343V18.5874H19.9442V19.1886H20.5453V18.5721C21.1369 18.4973 21.5974 17.9965 21.5974 17.3851C21.5974 16.9883 21.402 16.6385 21.1044 16.4193C21.3239 16.1957 21.447 15.8949 21.4471 15.5816C21.4471 15.0231 21.0626 14.5563 20.5453 14.422V13.7781H19.9442V14.3793H19.343V13.7781H18.7418V14.3793H17.8401V14.9804H18.4412V17.9863ZM20.395 17.9863H19.0424V16.7839H20.395C20.7266 16.7839 20.9962 17.0536 20.9962 17.3851C20.9962 17.7167 20.7266 17.9863 20.395 17.9863ZM19.0424 14.9804H20.2447C20.5763 14.9804 20.8459 15.2501 20.8459 15.5816C20.8459 15.9131 20.5763 16.1828 20.2447 16.1828H19.0424V14.9804Z" fill="#FFF176"/>
<path d="M9.23809 8.2068C8.98607 8.47286 8.71779 8.75269 8.4533 9.03584C7.95794 9.56623 7.41822 10.0632 6.98398 10.6401C6.56316 11.1992 6.25966 11.8459 5.89063 12.4453C5.22648 13.5238 5.15637 14.7658 4.91177 15.96C4.90356 16.0002 4.9533 16.0522 5.02405 16.1966C6.35567 16.5316 7.77619 16.3012 9.17872 16.3468C9.44321 16.3553 9.71213 16.2276 10.1194 16.1287C9.20209 15.2357 8.89986 14.2442 8.88928 13.1276C8.87617 11.746 9.03771 10.4497 10.3431 9.50831C10.4755 9.54788 10.6714 9.59567 10.8596 9.66468C11.6176 9.94245 12.3612 10.2669 13.1327 10.4985C14.1046 10.7903 15.0536 10.5208 15.9985 10.2663C16.4359 10.1485 16.8443 10.0107 17.1787 9.64458C17.1607 9.49975 17.1983 9.29384 17.1134 9.20394C16.7205 8.78799 16.356 8.27992 15.8668 8.03333C14.6061 7.39769 13.274 7.2641 11.9288 7.85811C11.6132 7.99756 11.2713 8.04425 10.9544 7.81348C10.8167 7.47145 10.863 7.17104 11.0202 6.83296C11.2498 6.3393 11.4608 5.81888 11.563 5.28739C11.7734 4.19117 11.5314 3.15557 10.9885 2.18106C10.7849 1.8156 10.6142 1.43891 10.208 1.26733C8.52372 2.35358 7.77035 5.55488 9.23809 8.2068Z" fill="#4E6BFD"/>
<path d="M25.3763 17.3932C25.0224 17.3453 24.7434 17.275 24.4644 17.2745C18.4139 17.2668 12.3634 17.2647 6.31305 17.2712C6.00277 17.2715 5.68064 17.3207 5.38503 17.4141C4.97132 17.5449 4.82526 17.7976 4.959 18.2109C5.28729 19.2243 5.46067 20.2721 5.92128 21.2623C6.77287 23.0931 8.06803 24.4859 9.73047 25.5396C10.6045 26.0935 11.5306 26.5634 12.5805 26.8073C13.2339 26.9591 13.8534 27.0467 14.5596 27.0104C14.7058 26.8194 14.8842 26.6269 15.0164 26.4066C15.6485 25.3522 16.2792 24.2966 16.8863 23.2278C17.121 22.8147 17.4363 22.6331 17.9032 22.6396C18.6395 22.6498 19.3767 22.6148 20.1127 22.633C21.0423 22.6559 21.8451 22.315 22.6284 21.8614C24.1194 20.998 25 19.6971 25.4009 18.0466C25.4415 17.8803 25.3905 17.6914 25.3763 17.3932ZM9.78652 26.989C9.00031 28.0319 8.45963 29.1494 7.8918 30.3458C8.10861 30.4977 8.30094 30.7418 8.51806 30.7665C9.63461 30.8933 10.7739 31.0485 11.7861 30.3567C12.1943 30.0778 12.6219 29.7926 12.9369 29.4216C13.2401 29.0645 13.74 28.8377 13.8435 28.263C12.5038 27.8425 11.1995 27.4329 9.78652 26.989ZM17.782 23.6858C17.2277 24.6409 16.7197 25.4937 16.2405 26.3623C16.1541 26.5188 16.1854 26.7407 16.1641 26.9185C17.7662 27.3522 21.5353 25.3979 22.7895 23.7575C23.0891 23.3657 22.8343 22.9038 22.3821 23.0993C21.5619 23.4536 20.7245 23.7439 19.8013 23.6928C19.1505 23.6567 18.4962 23.6858 17.782 23.6858Z" fill="#4E6BFD"/>
<path d="M20.2548 20.0494C20.2587 20.6355 19.9086 21.0024 19.3539 20.9939C18.9149 20.9871 18.3872 20.4516 18.4021 20.0282C18.4163 19.6245 18.9116 19.1492 19.3324 19.1354C19.905 19.1167 20.2508 19.4594 20.2548 20.0494Z" fill="white"/>
</svg>
